/* XPM */
static char *result[] = {
/* columns rows colors chars-per-pixel */
"48 51 165 2 ",
"   c #070000",
".  c #110000",
"X  c #1B0000",
"o  c #240000",
"O  c #2D0000",
"+  c #360000",
"@  c #361F07",
"#  c #5A0400",
"$  c #7C1400",
"%  c #7C1E02",
"&  c #741500",
"*  c #452C0E",
"=  c #5F2807",
"-  c #51280B",
";  c #5C2D0B",
":  c #5A330E",
">  c #5C3711",
",  c #6C2304",
"<  c #622A07",
"1  c #7C2302",
"2  c #70310E",
"3  c #653C16",
"4  c #763913",
"5  c #654A34",
"6  c #6B4A31",
"7  c #704E31",
"8  c #7C5031",
"9  c #851F00",
"0  c #951F00",
"q  c #852A01",
"w  c #8D2B00",
"e  c #852302",
"r  c #843107",
"t  c #8D3503",
"y  c #953402",
"u  c #953F07",
"i  c #9A3F0B",
"p  c #952800",
"a  c #A63907",
"s  c #9B4207",
"d  c #99420C",
"f  c #9B490D",
"g  c #9D5002",
"h  c #9D4611",
"j  c #9B4911",
"k  c #9D4F1A",
"l  c #9D5C1A",
"z  c #A64707",
"x  c #A04B0D",
"c  c #A65407",
"v  c #A14F12",
"b  c #A45211",
"n  c #AD5912",
"m  c #A0521A",
"M  c #AD5E1D",
"N  c #B25E18",
"B  c #B85F18",
"V  c #B06319",
"C  c #B9641C",
"Z  c #BD6C1E",
"A  c #AE691E",
"S  c #A85F2D",
"D  c #9A6421",
"F  c #AA6A27",
"G  c #AA762D",
"H  c #BE7B2D",
"J  c #B4782A",
"K  c #AE6A33",
"L  c #AB7733",
"P  c #B37D33",
"I  c #CF691B",
"U  c #CE7C24",
"Y  c #C47E2D",
"T  c #C97E2A",
"R  c #C17521",
"E  c #D77624",
"W  c #D77E24",
"Q  c #D77E2D",
"!  c #AB7D40",
"~  c #CF8311",
"^  c #C4822D",
"/  c #CC822D",
"(  c #CC882D",
")  c #D7852D",
"_  c #D78D2D",
"`  c #DF8F2D",
"'  c #D78325",
"]  c #C48433",
"[  c #CE8731",
"{  c #C48936",
"}  c #CD8D34",
"|  c #D18631",
" . c #D38D3B",
".. c #DF8B36",
"X. c #D79736",
"o. c #D99133",
"O. c #D79C36",
"+. c #D4933C",
"@. c #D99239",
"#. c #D99D39",
"$. c #FF872D",
"%. c #DCA43F",
"&. c #B69340",
"*. c #B69869",
"=. c #BCA268",
"-. c #C48842",
";. c #CB934B",
":. c #D79745",
">. c #D79C45",
",. c #DF9F40",
"<. c #D7A745",
"1. c #DEA341",
"2. c #D7A44B",
"3. c #DFA749",
"4. c #DFAC49",
"5. c #DFB349",
"6. c #D3A352",
"7. c #DFB651",
"8. c #ECAB40",
"9. c #E9AD49",
"0. c #EFA341",
"q. c #F7AF49",
"w. c #FFAB46",
"e. c #EAB549",
"r. c #F7B549",
"t. c #E2B156",
"y. c #EAB551",
"u. c #EDBE51",
"i. c #FABC57",
"p. c #D4A062",
"a. c #D4A865",
"s. c #D7AC69",
"d. c #D9B360",
"f. c #D4B874",
"g. c #D9BB7C",
"h. c #D1AD7C",
"j. c #E5BB60",
"k. c #EFBB63",
"l. c #E2BA79",
"z. c #FFC85A",
"x. c #E8C46B",
"c. c #F7D06B",
"v. c #FBD86B",
"b. c #EFCA74",
"n. c #F7D87C",
"m. c #FFE074",
"M. c #F7E07C",
"N. c #FFE46B",
"B. c #D7BB85",
"V. c #EFD885",
"C. c #EFDC8D",
"Z. c #F7E48D",
"A. c #FFE095",
"S. c #FFE49D",
"D. c #FFEE9D",
"F. c #FFE895",
"G. c #FFF39D",
"H. c #FFE4A6",
"J. c #FFE8A6",
"K. c #FFECAE",
"L. c #FFFFAE",
"P. c #F7EEB6",
"I. c #F7ECBE",
"U. c #FFFFC7",
"Y. c None",
/* pixels */
"Y.Y.Y.Y.Y.Y.Y.Y.Y.Y.Y.Y.Y.Y.Y.Y.Y.Y.Y.> > > > > > > > > > Y.Y.Y.Y.Y.Y.Y.Y.Y.Y.Y.Y.Y.Y.Y.Y.Y.Y.Y.",
"Y.Y.Y.Y.Y.Y.Y.Y.Y.Y.Y.Y.Y.Y.Y.Y.1 % % G w.G w.r.> r.q.F w.; : % Y.Y.Y.Y.Y.Y.Y.Y.Y.Y.Y.Y.Y.Y.Y.Y.",
"Y.Y.Y.Y.Y.Y.Y.Y.Y.Y.Y.Y.Y.6 6 1 a.s.1 q r q q q q q q 1 1 % { { % 1 % Y.Y.Y.Y.Y.Y.Y.Y.Y.Y.Y.Y.Y.",
"Y.Y.Y.Y.Y.Y.Y.Y.Y.Y.Y.6 6 *.*.e 1 1 1 I.I.I.I.P.P.P.h.y.y.y.% % % { { = Y.Y.Y.Y.Y.Y.Y.Y.Y.Y.Y.Y.",
"Y.Y.Y.Y.Y.Y.Y.Y.Y.Y., *.6 6 6 F.F.a.a.q q r q q q q q e % { y.y.u.1 % ; < ; Y.Y.Y.Y.Y.Y.Y.Y.Y.Y.",
"Y.Y.Y.Y.Y.Y.Y.Y.Y., a 6 S.S.S.a.1 1 1 q q q q q r q q m k 1 % 1 { y.y.; = $.< Y.Y.Y.Y.Y.Y.Y.Y.Y.",
"Y.Y.Y.Y.Y.Y.Y.Y.+ 8 =.A.A.p.$ w M N } _ _ _ _ ) Q Q Q } } s s d % % _ 9.e.$ f . Y.Y.Y.Y.Y.Y.Y.Y.",
"Y.Y.Y.Y.Y.Y.Y.+ 8 =.G.A.% $ S M } }  .#.%.O.O.%.@.@.o.} } } } _ f d 1 % ^ e.% P . Y.Y.Y.Y.Y.Y.Y.",
"Y.Y.Y.Y.Y.Y., 7 =.G.=.% F S p. .z.} z.7.7.7.7.5.%.%.%.9.9.9.9._ _ _ f j % ^ 9.3 P . Y.Y.Y.Y.Y.Y.",
"Y.Y.Y.Y.Y., a a.G.=.8 F p.p.p.u.{ } { #.#.#.#.<.@.o.@.} ( o.} _ ) ) ) ^ b % ^ i.3 P . Y.Y.Y.Y.Y.",
"Y.Y.Y.Y.o 6 *.v.>.9 S { c c c g g g g g g g g d s s s f j f j h h h h u ) u & ] y.1 { . Y.Y.Y.Y.",
"Y.Y.Y.Y.o =.G.>.9 M :.c -.l.l.g.g.f.g.d.d.d.7.5.9.5.5.3.4.4.3.4.4.4.3.u d _ u % { t.% ... Y.Y.Y.",
"Y.Y.Y.o 7 D.=.e M M S c l.J.K.P.P.P.P.Z.Z.Z.Z.5.5.5.5.4.4.4.4.4.3.4.4.u u _ _ k % ] y.- . Y.Y.Y.",
"Y.Y.Y.o D.=.7 M M >.:.-.l.K.K.P.P.P.P.d.d.d.d.{ { } { H H $ $ $ H Y 4.u u _ ) ] S $ y.= ... Y.Y.",
"Y.Y., q D.s.q ^ N 4.4.j.V.V.V.7.7.7.7.y.y.y.u.) ) ) ) ) ) 1 1 q q e o.6.6.t t ) d e ) y.4 + Y.Y.",
"Y.Y., D.s.q K ^ n 9.v.C.V.V.j.7.7.7.7.u.( } } ) ) 1 1 1 1 1 ) _ q q _ 6.n.6.t h _ d 1 y.4 P + Y.",
"Y., i D.a.q d.{ n 5.7.t.x.t.t.5.7.7.7.u.} } } ) ) 1 1 1 1 1 ) _ _ f _ 2.n.6.t 1 ) f % P y.4 + Y.",
"Y., a a.q K a.5.n ] ] ~ %.%.%.%.%.O.%.{ } } y % 1 1 ) ) ) ) ) _ Z f O.n.n.6.t % _ _ d 4 y.4 + Y.",
"Y.5 H.u.q } } 6.F e q 1 _ X.X.O.O.O.O.' ) _ 1 1 1 1 [ ` ` ` ` _ _ n _ m.m.2.q % ) ) i % ] y.1 + ",
"5 5 H.z.q } { 6.6.q q 1 X.X.X.O.O.O.J ( ) ) 1 [ } ( [ ` 1 1 1 R _ V _ m.2.2.e 1 ) | d % ] y.% + ",
"5 *.H.q { } z.6.M.M.2.X.1 1 1 1 % 1 1 1 1 1 1 ( [ [ [ ` 1 1 1 s _ n _ 2.2.2.q % ) _ ) m % y.% + ",
". *.H.e { z.e.M.M.M.6.X.1 1 1 1 1 1 1 1 1 1 1 { r.[ 1 1 Z Z Z n _ n _ 2.2.2.e % ) ) C m % y.% + ",
"X *.H.q B.B.B.C.C.7.7.1.C z C b v T T ] ] ^ 5.9.] ] 1 p T 9.( n _ n _ r.} | e 1 ' U V k $ 7.$ + ",
"X *.S.q B.B.B.C.C.7.7.1.C z ( b v % % e 5.5.5.9.1 1 1 T 9.9./ n _ n _ | | | q % U V N k % 7.% + ",
"X *.S.q B.U.B.C.7.7.7.5.Z z %.8.Y % % e 5.5.4.9.1 1 1 9.9.9.T n _ n _ ( ) e q % U N N k $ 7.% + ",
"X *.S.r B.U.B.5.7.7.7.%.V z %.8.T % % e 5.5.5.9.1 1 1 9.9.9.T n _ n / _ [ q q % N Q N k $ 7.% + ",
"X *.S.1 f.L.L.7.7.7.7.8.V s 8.5.} y y 9 7.7.7.9.% 1 % 3.3.3.@.x _ x _ f f 1 1 % W U N k % 7.$ + ",
"X *.S.1 f.L.f.7.7.7.7.( V s V V V y y j 7.7.7.9.b j b I I I I x _ x x 1 1 _ 1 % U N M k $ 7.% + ",
"X *.S.1 f.L.f.7.7.7.7.( V d ( ( } { } ^ ] 7.7.9.^ ^ ^ +.@.@.@.) _ x q 1 1 _ 1 % N N N k % 7.$ + ",
"X *.S.1 f.L.f.7.7.7._ ( V d ( e.e.e.e.7.5.5.7.9.9.9.9.3.3.3.4._ _ x q o._ _ 1 % N N N k % 5.% + ",
"Y.  7.F e N.<.7.u._ _ J b d _ 3.3.3.5.5.4.4.4.4.4.4.4.4.3.9.4.:.:.:.:.+.+.+.1 1 n n n 2 4 r.+ Y.",
"Y.  5.<.q <.4.<._ X.' _ b s _ 5.3.5.3.3.4.4.4.4.4.4.4.4.3._ _ :.:.:.:.+.+.+.1 % n n y 4 P e.+ Y.",
"Y.  7.<.q <.<.o.o.W 1._ n u _ _ o.o.o._ _ _ _ _ _ _ _ _ _ _ _ :.:.c.c.z.+.+.1 1 n n r 4 J e.+ Y.",
"Y.Y.  <.q q <.o.W 1.1._ V d _ ' o.o.` _ _ _ _ o._ _ _ _ _ _ 5.>.:.c.0 1 1 1 1 1 n n 1 4 e.+ Y.Y.",
"Y.Y.+ ,.#.2 0.| 9.9.| ) b u _ ) ) Q ) ) ) ) ) ) ) ) ) _ ) _ t.b.;.b.9 1 1 1 1 q M q q G e.. Y.Y.",
"Y.Y.+ ,.>.2 2 9.q.| | _ n u _ ) ) i i i d d d d d d ) _ _ o.t.b.;.b.9 1 d s i q M q q e.e.. Y.Y.",
"Y.Y.Y.+ ,.,.2 [ | | | _ n u _ | Q % % % % % % % % d ) ) t.t.t.b.;.;.9 1 d d i M q q +.e.. Y.Y.Y.",
"Y.Y.Y.Y.+ ,.2 y | | | ) _ u ) ) ) ) ) ) ) ) ) ) ) ) Q | ) x.x.b.;.;.e 1 d u v S q  .i.. Y.Y.Y.Y.",
"Y.Y.Y.Y.  0.0.r r ) ) | ) C d d d | ) ) ) ) ) b.b.b.b.H.J.J.J.X.e % j w w N n > ! k.k.+ Y.Y.Y.Y.",
"Y.Y.Y.Y.Y.  F ) r r ) Q ) ) % % 1 ) ) ) ) ) ) ;.;.;.;.K K K s.X.1 % j w M N w &.k.k.X Y.Y.Y.Y.Y.",
"Y.Y.Y.Y.Y.Y.  _ ) r r | ) ) ) C i % % 1 1 1 1 % % % % q e q q 1 h j h N N w  .k.k.X Y.Y.Y.Y.Y.Y.",
"Y.Y.Y.Y.Y.Y.Y.# ) ) r % B ) ) Q C d % 1 1 1 1 % % % % q q q q % j j j N w  .i.k.X Y.Y.Y.Y.Y.Y.Y.",
"Y.Y.Y.Y.Y.Y.Y.Y.  W U v , , v Q W B d d d f d s s d s s i u s x k j 1 3 L y.y.+ Y.Y.Y.Y.Y.Y.Y.Y.",
"Y.Y.Y.Y.Y.Y.Y.Y.Y.  U E E v , % B B B b b b b b b v i u s s s v 1 1 Y L q.y.X Y.Y.Y.Y.Y.Y.Y.Y.Y.",
"Y.Y.Y.Y.Y.Y.Y.Y.Y.Y.  O E E E i % % % s d d d d i s i s s % % % Y Y 9.9.X X Y.Y.Y.Y.Y.Y.Y.Y.Y.Y.",
"Y.Y.Y.Y.Y.Y.Y.Y.Y.Y.Y.Y.O E E N B B i % 1 % % 1 % % % % % ) ) Y 9.9.v X Y.Y.Y.Y.Y.Y.Y.Y.Y.Y.Y.Y.",
"Y.Y.Y.Y.Y.Y.Y.Y.Y.Y.Y.Y.Y.. . . { { ] ) _ _ ) _ _ _ ) X.X.X.X.&.      Y.Y.Y.Y.Y.Y.Y.Y.Y.Y.Y.Y.Y.",
"Y.Y.Y.Y.Y.Y.Y.Y.Y.Y.Y.Y.Y.Y.Y.Y.. . . l l l l l l l l D D X X   Y.Y.Y.Y.Y.Y.Y.Y.Y.Y.Y.Y.Y.Y.Y.Y.",
"Y.Y.Y.Y.Y.Y.Y.Y.Y.Y.Y.Y.Y.@ @ - - - - o o o o o o o o X X ; ; * * * Y.Y.Y.Y.Y.Y.Y.Y.Y.Y.Y.Y.Y.Y.",
"Y.Y.Y.Y.Y.Y.Y.Y.Y.Y.Y.@ @ @ @ - - - - < < < < < < < < ; > ; ; * * * * @ Y.Y.Y.Y.Y.Y.Y.Y.Y.Y.Y.Y.",
"Y.Y.Y.Y.Y.Y.Y.Y.Y.Y.Y.Y.Y.Y.Y.Y.@ @ @ @ @ @ @ @ @ @ @ @ @ @ @ @ Y.Y.Y.Y.Y.Y.Y.Y.Y.Y.Y.Y.Y.Y.Y.Y."
};
