/* XPM */
static char *result[] = {
/* columns rows colors chars-per-pixel */
"26 49 45 1 ",
"  c black",
". c #201010",
"X c #533209",
"o c #402811",
"O c #663B01",
"+ c #704028",
"@ c #7B4A31",
"# c #756C3D",
"$ c #3E5A4C",
"% c #4F6E60",
"& c #5D7C6E",
"* c #824917",
"= c #9D5632",
"- c #A05828",
"; c #AD6331",
": c #A86F3D",
"> c #DE7B39",
", c #E7C400",
"< c #FFEA2D",
"1 c #B38A41",
"2 c #B2874D",
"3 c #948B60",
"4 c #B58A64",
"5 c #B3AA7D",
"6 c #E7A563",
"7 c #0031AD",
"8 c #004ACE",
"9 c #006CDE",
"0 c #105AFF",
"q c #317BEF",
"w c #72988A",
"e c #529CFF",
"r c gray61",
"t c #86B3A3",
"y c #A5CCBE",
"u c #F7D694",
"i c #D7CEA3",
"p c #E5DDAC",
"a c #FFEFB5",
"s c #FFF5BF",
"d c #FFFFBC",
"f c #8CBDFF",
"g c #CECECE",
"h c white",
"j c None",
/* pixels */
"jjjjjjjjjjjj    jjjjjjjjjj",
"jjjjjjj jj  O==*    jjjjjj",
"jjjj j :  *:22:::=*O jjjjj",
"jjj = O:Oo==::=*OOoOjjjjjj",
"jjj *Oo2=oXO*22222:o  jjjj",
"jjj *:o=O=::=**=222=OO   j",
"j  OOoOO=:2222==*:=:::=*O ",
" O*=oO*=O=:=2:22:*=::=*O j",
" *=oO=22oO*X:2=22:**=*o jj",
"j Oo*:2:*oOOX:2*22::OOO.jj",
"j Oo=2=*XXooOo==*::==Xo.jj",
"jj o:=*Xo>66u6ooO=*OXoOX j",
"jjj :*Xo>6uu6u6>;O=OoOXoX ",
"jjj =Xo;  @;6;@  O=*O2:* j",
"jjj *X.>r  >6>  r>XO=:= jj",
"jjj .o 6g  666  g6X=X= jjj",
"jjjj   6h-+uuu+-h6X=XX jjj",
"jjjj > 6h4-uuu-4h6X*  jjjj",
"jjjjj  @>uuaaauu>;  jjjjjj",
"jjjjjjj ;6uuuuu6@ jjjjjjjj",
"jjjjjj   ;>666>; jjjjjjjjj",
"jjjjj 80,       ,  jjjjjjj",
"jjjj ii0q,<>>><,00i jjjjjj",
"jjj ipiqqeq<<<qqq0pi jjjjj",
"jj 5pipqqeeqqqeeqqpsi jjjj",
"jj iiii0effeeffeeq55p5 jjj",
"j ipi5 0qeffqeffq03ipi jjj",
"j ii53 0qqe000qe00 isp jjj",
"j 3533 ,qqqeqqeqq0 isp jjj",
" #387# 1,,qqqeeqq, 5ii jjj",
" 80q87 qee,<<<,,, 80q5 jjj",
" 7@;  0qefffq9qq ;0qeq jjj",
" @>6@ qefffeee0 ;>>;q0 jjj",
" ;6> 1,<dd<,q0 ;>u66; jjjj",
" >>;        ,< >;6uu> jjjj",
"j @>@  35i53   6@>u66 jjjj",
"jj     5ipi535  @6u;u jjjj",
"jjjjjj issp5335 6h;6 jjjjj",
"jjjjjj pssi5 35p    jjjjjj",
"jjjjjj iip53 135,1 jjjjjjj",
"jjjjjj <<531 $11&% jjjjjjj",
"jjjjj ,%w,,$ $%%$$ jjjjjjj",
"jjjjj %w%&%$ %&&&w jjjjjjj",
"jjjjj $%&%&$ &wtt& jjjjjjj",
"jjjjj $&w&$$ wtyt$ jjjjjjj",
"jjjjj %wt$w$  $$$ jjjjjjjj",
"jjjj wtytw&$ j   jjjjjjjjj",
"jjjj wyhyw  jjjjjjjjjjjjjj",
"jjjjj     jjjjjjjjjjjjjjjj"
};
