/* XPM */
static char *result[] = {
/* columns rows colors chars-per-pixel */
"40 59 53 1 ",
"  c #382828",
". c #392828",
"X c #382928",
"o c #382829",
"O c #392829",
"+ c #392929",
"@ c #683828",
"# c #693828",
"$ c #683928",
"% c #683829",
"& c #A03800",
"* c #A13800",
"= c #A03900",
"- c #A03801",
"; c #A03901",
": c #905838",
"> c #915838",
", c #905938",
"< c #905839",
"1 c #E04838",
"2 c #E14838",
"3 c #E04938",
"4 c #E14938",
"5 c #E04839",
"6 c #E14839",
"7 c #D08018",
"8 c #C09070",
"9 c #C19070",
"0 c #C09071",
"q c #F88078",
"w c #F98078",
"e c #F88178",
"r c #F98178",
"t c #F88079",
"y c #F98079",
"u c #F8E058",
"i c #F8E158",
"p c #385890",
"a c #385891",
"s c #7090E0",
"d c #7090E1",
"f c #E09080",
"g c #E09180",
"h c #E09081",
"j c #B0D0F8",
"k c #B1D0F8",
"l c #F8D0C0",
"z c #F9D0C0",
"x c #F8F8F8",
"c c #F9F8F8",
"v c #F8F9F8",
"b c #F8F8F9",
"n c None",
/* pixels */
"nnnnnnnnnnnnnnnnnnn& nnnnnnnnnnnnnnnnnnn",
"nnnnnnnnnnnnnnnnnn&1& nnnnnnnnnnnnnnnnnn",
"nnnnnnnnnnnnnnnnnn-11 nnnnnnnnnnnnnnnnnn",
"nnnnnnnnnnnnnnnnn&1q1= nnnnnnnnnnnnnnnnn",
"nnnnnnnnnnnnnnn &111111& nnnnnnnnnnnnnnn",
"nnnnnnnnnnnnnnn&11qqq131-nnnnnnnnnnnnnnn",
"nnnn &&nnnnnnn 1qqqqqqqq1 nnnnnnn&&.nnnn",
"nnnn 11&& nnn 5qqqqqqqqqq& nnn&&&11 nnnn",
"nnnn&wqq1&  n*qqqwqqqqqqq1 n  2qwt2 nnnn",
"nnnn&qqqqw1& &qqqqqqq1qqqq& *1qwqq1.nnnn",
"nnnn&qqqqq1& 1qqqqqqq1wqqq1.&1eqqq& nnnn",
"nnnn qqqqq1 &qqqt1qqq1tqqt1& 1wqw1& nnnn",
"nnnn 1qq111 &qqqq1qtq1qqqq2& 111&&& nnnn",
"nnnn.&5111& 1qqqq&151&1qq21* &&&&&& nnnn",
" &&&&  &&&& 15t111=1&111111& *&&&X  &&&&",
" 1qq5&&  .&o&11161&1&11111&& &   &&111& ",
" 1tqqqqq1&X- 111&&    &&&&& & &1qtqqq1& ",
" &1qqeqqqq3o &&  @@@@@@  &-  1qqqqqqq1& ",
"nX3qqqqyqq11 . @:::::@@@@   15qqqqqqq1 n",
"n 1qe1qtqq1- @::8988:::#@@@ &11rqqqqq& n",
"n &qqq1qq1&o@::88888::::@@@@ &313&eq1& n",
"n &1qwq&&1 @@::9088::::::@@@@ &4&111*& n",
"n.&1qqqq1& @::@@::::>:::@@@@@ &*1311&& n",
"nn &qqq&&&@$:@uu ::::::@iu @@@ &511&& nn",
"nn+&1qq11 @::@u7 <:::::@u7 @@@ &&&&=& nn",
" o *1121& @::<  ::::::::  @@@@ &&&&&& . ",
" && &111&#@::::::@@@@@@::,@@@@@ &=&& &&X",
"n.&  =&& @@@:lxz lxxolxx lx@@@@ &&&  * n",
"n &11 .& @@@$fxX fxl fxf  xf@@@ & o&&& n",
"n &11&&   @b  f   f   f   f X@   &-&&& n",
"nn &1& && @f       o   XX    @ && &&& nn",
"nn &1 *11 %.o                @ &=& && nn",
"nnn & 1wq& @         o   . f@ &&&& & nnn",
"nn   &1tq1 @xf       X  f  x@ &&&&&   nn",
"nn &&&1111= @x .f   f o lf @ ;&1&&&&& nn",
"nn &&&&111& $x vl. ol   xl @ &5&&&&&& nn",
"nnn &&&&1&11.@@vxf lxl lx@@o111&&*&&onnn",
"nnnn &&&=&111  @@x xxx @@  111&&&&&Xnnnn",
"nnnn &&&&-&&& &  @@@%@@X & &=&&&&&& nnnn",
"nnnnn X&&&&  & &1     .*& & o*&&-  nnnnn",
"nnnnnnn o  n & &&11&1&&&&o& n    nnnnnnn",
"nnnnnnnnnnnn    -&&&&&&& o  nnnnnnnnnnnn",
"nnnnnnnnnnnnnnn  &&&&-&  nnnnnnnnnnnnnnn",
"nnnnnnnnnnnnnnnnn  &&  nnnnnnnnnnnnnnnnn",
"nnnnnnnnnnnnnnnn   &&   nnnnnnnnnnnnnnnn",
"nnnnnnnnnnnnnn& *&    &* &nnnnnnnnnnnnnn",
"nnnnnnnnnn    11&o1ap1 &11    nnnnnnnnnn",
"nnnnnnn      &&o1qt11qq1 &&      nnnnnnn",
"nnnnn    O      1& sp &1     X     nnnnn",
"nnnn o         &  sjjd .&   X . X   nnnn",
"nnnn  X      o & psjksp &          onnnn",
"nnn               jdsj     o  o      nnn",
"nnn            fxfopp fxf   X     X  nnn",
"nnnn   X       fxx pp xxg       .   nnnn",
"nnnn X     .   lcxl  lxxl           nnnn",
"nnnnn.X        lxl    lxl    o     nnnnn",
"nnnnnnn         xf    hx    X    nnnnnnn",
"nnnnnnnnnn   .  l o    l  X   nnnnnnnnnn",
"nnnnnnnnnnnnnn            nnnnnnnnnnnnnn"
};
