/* XPM */
static char *result[] = {
/* columns rows colors chars-per-pixel */
"49 55 49 1 ",
"  c #382828",
". c #392828",
"X c #382928",
"o c #382829",
"O c #392829",
"+ c #382929",
"@ c #683828",
"# c #683928",
"$ c #683829",
"% c #683929",
"& c #A03800",
"* c #A13800",
"= c #A03900",
"- c #A03801",
"; c #A13801",
": c #905838",
"> c #915838",
", c #905839",
"< c #E04838",
"1 c #E14838",
"2 c #E04938",
"3 c #E04839",
"4 c #D08018",
"5 c #C09070",
"6 c #C19070",
"7 c #F88078",
"8 c #F98078",
"9 c #F88178",
"0 c #F88079",
"q c #F98079",
"w c #F8E058",
"e c #385890",
"r c #395890",
"t c #385990",
"y c #395891",
"u c #7090E0",
"i c #7091E0",
"p c #7090E1",
"a c #7091E1",
"s c #E09080",
"d c #E19080",
"f c #E19180",
"g c #E09081",
"h c #B0D0F8",
"j c #B0D1F8",
"k c #F8D0C0",
"l c #F8F8F8",
"z c #F8F9F8",
"x c None",
/* pixels */
"xxxxxxxxxxxxxxxxxxx& xxxxxxxxxxxxxxxxxxxxxxxxxxxx",
"xxxxxxxxxxxxxxxxxx&< xxxxxxxxxxxxxxxxxxxxxxxxxxxx",
"xxxxxxxxx xxx &&&&<< xxxxxxxxxxxxxxxxxxxxxxxxxxxx",
"xxxxxxxx  x &<777<3< xxxxxxxxxxxxxxxxxxxxxxxxxxxx",
"xxxxxxx & &<7777772- xxxxxxxxxxxxxxxxxxxxxxxxxxxx",
"xxxxxxx&& <7779778<& xxxxxxxxxxxxxxxxxxxxxxxxxxxx",
"xxxxxx & &<7777077<& xxxxxxxxxxxxxxxxxxxxxxxxxxxx",
"xxxxxx < &377<<787<&  xxxxxxxxxxxxxxxxxxxxxxxxxxx",
"xxxxxx&< &<<&77777< ere   xxxxxxxxxxxxxxxxxxxxxxx",
"xxxxxx << <&777777& uu ueye xxxxxxxxxxxxxxxxxxxxx",
"xxxxxx &  2&97777<& eeuuuuuee xxxxxxxxxxxxxxxxxxx",
"xxxxxxx % &<77077<& a    hurue xxxxxxxxxxxxxxxxxx",
"xxxxxx @@@ <<777<&   &&&&  &&ueXxxxxxxxxxxxxxxxxx",
"xxxxx #::@ &<777<& &&&&<777<*hue xxxxxxxxxxxxxxxx",
"xxxx :55::@ <77<& &&-&<7877< huee xxxxxxxxxxxxxxx",
"xxxx@555::@ &<<&  &&&&<<&<7<oueue xxxxxxxxxxxxxxx",
"xxx :565::$ &&  &&&&&&&&777< euue& xxxxxxxxxxxxxx",
"xxx@:55:::: &X&&&&&&&&<<7q<& heue<& xxxxxxxxxxxxx",
"xxx$:::::::  -.o  &&&<<<<1& hhuee&< xxxxxxxxxxxxx",
"xx :::@::::@  &<1&  &&&*-&&.hjuXee7& xxxxxxxxxxxx",
"xx@::@w :::@ &<<<<<&. &&&& iuuu ee7&<&xxxxxxxxxxx",
"xx@::@4 :::@ &<<777<& &&& heuuXuee7&7<&xxxxxxxxxx",
"x :::: ::::@ <<70077<&   uueeepuue< 1& xxxxxxxxxx",
" ::,::>:@  @ <<78777<< uauu uheuee< && xxxxxxxxxx",
" @::::@  s @ <<777707<= uu uuuu ee< & xxxxxxxxxxx",
"x @@@  kls @ *<777777<<   euuue ee<  xxxxxxxxxxxx",
"xx llsksls.@ &<7777773<- e eeet ee& xxxxxxxxxxxxx",
"xx klslsls @ &&7777777<<&   ee ee&& xxxxxxxxxxxxx",
"xxx zslksk @ *&&<77777<<<&    eee& xxxxxxxxxxxxxx",
"xxxoklsls @@ &3<&&&77<<&&&  ee ee xxxxxxxxxxxxxxx",
"xxxx kslko@@ &&&<<<<&&&&&  eeeeeeXxxxxxxxxxxxxxxx",
"xxxxx kg @@ = &&&&&&&&&&=oeeeeee xxxxxxxxxxxxxxxx",
"xxxxxx  @@@.< &&*&&&&&&& e  eee xxxxxxxxxxxxxxxxx",
"xxxxxxx @@ &<&  &&*&&&  uiue   xxxxxxxxxxxxxxxxxx",
"xxxxxxxx  &&<<<&      & hiee xxxxxxxxxxxxxxxxxxxx",
"xxxxxxx && &&<77<& &&&&& pee xxxxxxxxxxxxxxxxxxxx",
"xxxxxxx &< &*&*<<<&X&&&& e     xxxxxxxxxxxxxxxxxx",
"xxxxxxx *2& &&-&&<&     X tuuue xxxxxxxxxxxxxxxxx",
"xxxxxxxxX&&  &&&&&* xx   eeuhhue  xxxxxxxxxxxxxxx",
"xxxxxxxxX*&&*     & xxx eeeeeuhue xxxxxxxxxxxxxxx",
"xxxxxxxx  &&&& xxx  xxx   eeeruhue x+klk xxxxxxxx",
"xxxxxxxxxxX && xxxxxxxxxxx   eeip&< klllks xxxxxx",
"xxxxxxxxxxxx * xxxxxxx    .e &e<<&<&ukks   xxxxxx",
"xxxxxxxxxxxx  xxxxx  slkkeepe =&7<&&  s      xxxx",
"xxxxxxxxxxxxxxxxx o sllseuhhue <79&&           xx",
"xxxxxxxxxxxxxxxx   sllsdeuuuhue7<7&&    X       x",
"xxxxxxxxxxxxxxxx. skks    ehhhe7<7&            Ox",
"xxxxxxxxxxxxxxx      oklkeuueee1*7;           o X",
"xxxxxxxxxxxxxxx      fllkeeeeee< *               ",
"xxxxxxxxxxxxxxxx     llkseeree &                x",
"xxxxxxxxxxxxxxxx    slss                  X     x",
"xxxxxxxxxxxxxxxxxo sks o         X             xx",
"xxxxxxxxxxxxxxxxxxx.                       X xxxx",
"xxxxxxxxxxxxxxxxxxxxxx  o      XX        Oxxxxxxx",
"xxxxxxxxxxxxxxxxxxxxxxxxxx            xxxxxxxxxxx"
};
