/* XPM */
static char *result[] = {
/* columns rows colors chars-per-pixel */
"49 55 61 1 ",
"  c #382828",
". c #392828",
"X c #382928",
"o c #392928",
"O c #382829",
"+ c #392829",
"@ c #382929",
"# c #683828",
"$ c #693828",
"% c #683928",
"& c #683829",
"* c #683929",
"= c #A03800",
"- c #A13800",
"; c #A03900",
": c #A03801",
"> c #A13801",
", c #905838",
"< c #915838",
"1 c #905938",
"2 c #905839",
"3 c #915839",
"4 c #E04838",
"5 c #E14838",
"6 c #E04938",
"7 c #E04839",
"8 c #E14839",
"9 c #D08018",
"0 c #C09070",
"q c #C19070",
"w c #F88078",
"e c #F98078",
"r c #F88178",
"t c #F98178",
"y c #F88079",
"u c #F98079",
"i c #F88179",
"p c #F8E058",
"a c #385890",
"s c #395890",
"d c #385990",
"f c #385891",
"g c #395891",
"h c #385991",
"j c #7090E0",
"k c #7190E0",
"l c #7091E0",
"z c #7090E1",
"x c #7091E1",
"c c #E09080",
"v c #E19080",
"b c #E09180",
"n c #E09081",
"m c #B0D0F8",
"M c #B0D1F8",
"N c #F8D0C0",
"B c #F8D1C0",
"V c #F8F8F8",
"C c #F9F8F8",
"Z c #F8F9F8",
"A c None",
/* pixels */
"AAAAAAAAAAAAAAAAAAAAAAAAAAAA =AAAAAAAAAAAAAAAAAAA",
"AAAAAAAAAAAAAAAAAAAAAAAAAAAA 4=AAAAAAAAAAAAAAAAAA",
"AAAAAAAAAAAAAAAAAAAAAAAAAAAA 44=-== AAA AAAAAAAAA",
"AAAAAAAAAAAAAAAAAAAAAAAAAAAA 474www4= A  AAAAAAAA",
"AAAAAAAAAAAAAAAAAAAAAAAAAAAA :6ewywww4= = AAAAAAA",
"AAAAAAAAAAAAAAAAAAAAAAAAAAAA =6ewwrwew4 ==AAAAAAA",
"AAAAAAAAAAAAAAAAAAAAAAAAAAAAX=5ywywwww4= = AAAAAA",
"AAAAAAAAAAAAAAAAAAAAAAAAAAA  =4wew44ww8=.4 AAAAAA",
"AAAAAAAAAAAAAAAAAAAAAAA   asa.4wwwwe=44- 4=AAAAAA",
"AAAAAAAAAAAAAAAAAAAAA agaj jj =wwwwww=4 44 AAAAAA",
"AAAAAAAAAAAAAAAAAAA aajjjjjaa =4wwwwr=6 .= AAAAAA",
"AAAAAAAAAAAAAAAAAA ajsjm   Xx =6wwyww4= * AAAAAAA",
"AAAAAAAAAAAAAAAAAXaj==  ====   =4wrw44 #$# AAAAAA",
"AAAAAAAAAAAAAAAA ajm-4www4==== =4www4; #,,% AAAAA",
"AAAAAAAAAAAAAAA aalmO4wwtw4=:== =4rw4 #,,00, AAAA",
"AAAAAAAAAAAAAAA ajazO4w4=54==== .=45: #,,000#AAAA",
"AAAAAAAAAAAAAA =ajjd 4www=;====;=  =: &,,0q0, AAA",
"AAAAAAAAAAAAA =4ajam =4uw44========X= ,,,,00,#AAA",
"AAAAAAAAAAAAA 4;aajmm ;54444===  O.:  ,,,,,,,&AAA",
"AAAAAAAAAAAA =waaXjMm.==:-===  =57=  #,2,,#,,,OAA",
"AAAAAAAAAAA=4=wfa jjjl ==== .=44444= #,,, p#,,#AA",
"AAAAAAAAAA=4w=waajXjjdm === =4www44= #,,, 9#,,#AA",
"AAAAAAAAAA =5 4azjzaaajj   =4wwyyw44 #,,,, ,1,, A",
"AAAAAAAAAA.== 4afjamj jjxj 44wwwew46 #  #,<,,3,, ",
"AAAAAAAAAAA = 4fa jljj jj ;4wiwrww45 # c  #,,,,# ",
"AAAAAAAAAAAA  4aa akkja   44wwwyww4- # cVN  ### A",
"AAAAAAAAAAAAA =aa hsaa a :47wwwwww4= #.cVcNcVV AA",
"AAAAAAAAAAAAA ==aa aa   =46wwwwwww== # cVcVcVN AA",
"AAAAAAAAAAAAAA =asa    -444wwwww4==- #.NcNVcZ AAA",
"AAAAAAAAAAAAAAA aaOaa  ==:54ww===47= ## cVcVNOAAA",
"AAAAAAAAAAAAAAAXaaadaa O=====4474=== #*+NVcN AAAA",
"AAAAAAAAAAAAAAAA aaadaaO>========== ; ## nN AAAAA",
"AAAAAAAAAAAAAAAAA saa  fO===-===-== 4.###  AAAAAA",
"AAAAAAAAAAAAAAAAAA   ajlj  ===--=  =4= ## AAAAAAA",
"AAAAAAAAAAAAAAAAAAAA aalm =     X=444=:  AAAAAAAA",
"AAAAAAAAAAAAAAAAAAAA aazX===== =4ww4== =- AAAAAAA",
"AAAAAAAAAAAAAAAAAA     a.====X=474-:-; 4= AAAAAAA",
"AAAAAAAAAAAAAAAAA ajjjd XO    =4==:=: =6-OAAAAAAA",
"AAAAAAAAAAAAAAA  ajmmjaa   AA -=====  ==XAAAAAAAA",
"AAAAAAAAAAAAAAA fjmjsaaaa AAAO=   . -==-XAAAAAAAA",
"AAAAAAAA NVN@A ajmjsaaf   AAA  AAA ====  AAAAAAAA",
"AAAAAA cNVCVN.4=zlaa  OAAAAAAAAAAA == XAAAAAAAAAA",
"AAAAAA   nBNj=4=44a= a.    AAAAAAA.- AAAAAAAAAAAA",
"AAAA      c  ==4w=; azaaNNVc  AAAAA XAAAAAAAAAAAA",
"AA           =:rw4 sjmmjacVVc O AAAAAAAAAAAAAAAAA",
"A       o    ==e7wajmjjjavcVVc   AAAAAAAAAAAAAAAA",
"A+         .  =w4wamMma    cNNc .AAAAAAAAAAAAAAAA",
"X O         O >w-5aaajlaNVBO    O AAAAAAAAAAAAAAA",
"     X         = 4aaaaaaNZVb      AAAAAAAAAAAAAAA",
"A                = aasaacNVV   X AAAAAAAAAAAAAAAA",
"A     X    O             ccVc    AAAAAAAAAAAAAAAA",
"AA             X           cNc OAAAAAAAAAAAAAAAAA",
"AAAA X   O .     O      X    .AAAAAAAAAAAAAAAAAAA",
"AAAAAAA+     X  XX      O  AAAAAAAAAAAAAAAAAAAAAA",
"AAAAAAAAAAA            AAAAAAAAAAAAAAAAAAAAAAAAAA"
};
