/* XPM */
static char *result[] = {
/* columns rows colors chars-per-pixel */
"40 54 43 1 ",
"  c #382828",
". c #392828",
"X c #382928",
"o c #382829",
"O c #683828",
"+ c #693828",
"@ c #683928",
"# c #683829",
"$ c #A03800",
"% c #A13800",
"& c #A03900",
"* c #A03801",
"= c #905838",
"- c #915838",
"; c #905938",
": c #905839",
"> c #E04838",
", c #E14838",
"< c #E04938",
"1 c #E04839",
"2 c #D08018",
"3 c #C09070",
"4 c #C09071",
"5 c #F88078",
"6 c #F98078",
"7 c #F88178",
"8 c #F88079",
"9 c #F8E058",
"0 c #F8E158",
"q c #385890",
"w c #385891",
"e c #7090E0",
"r c #E09080",
"t c #E09180",
"y c #E09081",
"u c #B0D0F8",
"i c #F8D0C0",
"p c #F9D0C0",
"a c #F8F8F8",
"s c #F9F8F8",
"d c #F8F9F8",
"f c #F8F8F9",
"g c None",
/* pixels */
"ggggggggggggggggggg$.ggggggggggggggggggg",
"gggggggggggggggggg$,$ gggggggggggggggggg",
"gggggggggggggggggg$>>.gggggggggggggggggg",
"ggggggggggggggggg$>5>$ ggggggggggggggggg",
"ggggggggggggggg $>>>1>>* ggggggggggggggg",
"ggggggggggggggg$>>555>>>%ggggggggggggggg",
"gggg $*ggggggg >55555555> ggggggg$$ gggg",
"gggg >>$$Xggg.>5555555555$ ggg$$$>> gggg",
"gggg$555>%  g$55575855555>Xg  >555> gggg",
"gggg$55765>$ $5556555>5685$o$>5555> gggg",
"gggg$85557>$ >5555555>5555> $>5585$ gggg",
"gggg 56575> $5558>555,5555>$ >555>$ gggg",
"ggggX,55>>> $5555>555>5585,$ >>>$$$ gggg",
"gggg $>,>>$ >5555$>>>$>57>>$.*$$$$$ogggg",
" $$$$  *$$$ >>7>>>$>$>>>>>>$ $$$$   $$$$",
" >55>$$   $ *>>>>,$>$>>>1>$$ $   *$>>>$ ",
" >575555>$ $X>>>$$    $$&$$ $ $>57555>* ",
" $>6555556>  $$  OOOOOO  $$  >5555556>$ ",
"g >8555555>>   O=====OOOO   >>5555555> g",
"g >55>5685,$ O=;=:=====#OOO $><557555$ g",
"g $655>55>* O===433=====OOOO $,>>$55>$ g",
"g $>555$$> OO==33333-===:OOOO $>$>>,$$ g",
"g $>5555>$ O===33333=====-#OO $$1<>>$$ g",
"gg $855$$$O@===33334;=====OOOO $>>1$$ gg",
"gg $>55>>oO=====333========OOO $$$$$$ gg",
"   $>>>>* O===OO========OO:OOO $*$%$&   ",
" $$ $>>>$OO=-O09 ======O99 OOOO &$$$ $$ ",
"g $  $$$ OOO=O92 ====:=O92.OO+O $$$ o$ g",
"g $>,  $ OO ==  -=======  =@ OO $ .$$$ g",
"g $>>$$   Oi ==-==========O iO.  $$$$$ g",
"gg $>$ $$ Oir O==-:======O riO &$o$$$ gg",
"gg $,o$>> Oiria  OOOOOO XirrpO $*$ $$ gg",
"ggg $ ,55$oOirairdaarsaarfriO $$$$ $ ggg",
"gg   $>561 OirayraairidirariO $$$$$   gg",
"gg $%$>>>>$ OrrariararararaO $$>*$$$$ gg",
"gg $$$$>>>$>.OiaarayarirsrO $$,$$%$$$ gg",
"ggg $%$&>$>>$  iaryiairai  $>>>&$$$$ ggg",
"gggg $$$$$>>>$   itaaar X $>>>&$*$$ gggg",
"gggg $%$$$$$$ & $      $ $ $$$%$$$$Xgggg",
"ggggg o$$$$  & $>>>$>>$$$ $  %$$$  ggggg",
"ggggggg.   g $ $$>>$>$$$$ * g   oggggggg",
"gggggggggg      $$$$$$$$      gggggggggg",
"ggggggg . X  $$ X$*$$$$  $$      ggggggg",
"ggggg   o       >  %$  >   X     X ggggg",
"gggg           $o  $$   $         oXgggg",
"ggggX    o     $ qe .eq *       .   gggg",
"ggg    . X        ueeu.          X   ggg",
"ggg            rar wq rar            ggg",
"ggggX         .raa qq aar    .      gggg",
"gggg    o .    iaai  isai o         gggg",
"ggggg     o    ifi    iai  .       ggggg",
"ggggggg         ar    rao        ggggggg",
"gggggggggg      i      i .    gggggggggg",
"gggggggggggggg          . gggggggggggggg"
};
