/* XPM */
static char *result[] = {
/* columns rows colors chars-per-pixel */
"32 48 10 1 ",
"  c black",
". c #601010",
"X c #683008",
"o c #784808",
"O c #A07800",
"+ c #F8B008",
"@ c #687880",
"# c #D8C0C0",
"$ c #F8F8F8",
"% c None",
/* pixels */
"%%%%.........................%%%",
"%%%%                         %%%",
"Oooo  ++++$ +   + +$ +++++$  ooo",
"Oooo  +$    ++ +$ +$   +$    ooo",
"Ooooo ++++$  ++$  +$   +$   oooo",
"OOOOO +$    +$ ++ +$   +$   OOOO",
"OXXXX $$$$$ +   $ $$   $$   XXXX",
"OXXXX                       XXXX",
"OXXXXXXXXXXXXXXXXXXXXXXXXXXXXXXX",
"OX                            OX",
"OX X........                  OX",
"OX .X...... .                 OX",
"OX X........                  OX",
"OX .X...... .                 OX",
"OX X........                  OX",
"OX .X...... .                 OX",
"OX X........                  OX",
"OX .X...... .                 OX",
"OX X........                  OX",
"OX .X...... .                 OX",
"OX X........                  OX",
"%OX X...... .                OX%",
"%OX ........                 OX%",
"%OX X......                  OX%",
"%OX ........                 OX%",
"%OX X......                  OX%",
"%OX ........                 OX%",
"%OX X...... .                OX%",
"%OX ........                 OX%",
"%OX X...... .                OX%",
"%OX ........                 OX%",
"%OX X...... .                OX%",
"%OX ........                 OX%",
"%OX X...... .                OX%",
"%OX ........                 OX%",
"%OX X......                  OX%",
"%OX .......                  OX%",
"%OX X.....                   OX%",
"%%OX .....                  OX%%",
"%%OX ....                   OX%%",
"%%OX ...                    OX%%",
"%%OX ..                     OX%%",
"%%OX .                      OX%%",
"%%OX                        OX%%",
"%%@@@@@@@@@@@@@@@@@@@@@@@@@@@@%%",
"%@@@@@@@@@@@@@@@@@@@@@@@@@@@@@@%",
"%@@@@@@@@@@@@@@@@@@@@@@@@@@@@@@%",
"%##############################%"
};
