/* XPM */
static char *result[] = {
/* columns rows colors chars-per-pixel */
"28 47 47 1 ",
"  c black",
". c #533209",
"X c #402811",
"o c #663B01",
"O c #704028",
"+ c #7B4A31",
"@ c #213173",
"# c #3E5A4C",
"$ c #4F6E60",
"% c #5D7C6E",
"& c #824917",
"* c #9D5632",
"= c #A05828",
"- c #946B34",
"; c #AD6331",
": c #A86F3D",
"> c #DE7B39",
", c #E7C400",
"< c #FFEA2D",
"1 c #B38A41",
"2 c #B2874D",
"3 c #948B60",
"4 c #B58A64",
"5 c #B3AA7D",
"6 c #E7A563",
"7 c #294A8C",
"8 c #4263A5",
"9 c #4A7BBD",
"0 c #004ACE",
"q c #105AFF",
"w c #317BEF",
"e c #72988A",
"r c #6B9CCE",
"t c #529CFF",
"y c gray61",
"u c #86B3A3",
"i c #A5CCBE",
"p c #F7D694",
"a c #D7CEA3",
"s c #E5DDAC",
"d c #FFEFB5",
"f c #FFF5BF",
"g c #FFFFBC",
"h c #8CBDFF",
"j c #CECECE",
"k c white",
"l c None",
/* pixels */
"lllllllll lll          lllll",
"llllllll : l .&*::*&o llllll",
"lllll l :*  &:22:*o.XX lllll",
"llll X *2& &:22:*&&&o.X  lll",
"llll &X2:&.o&*:222222*&oX ll",
"llll &o:*o*22:*:222222:*&X l",
"llll Xo*o:22222&*:222:::*. l",
"lll o.Xo*o&:2:::o&*:22*&& ll",
"lll .X&:X.o&22***oo&*::*& ll",
"lll  &:*>X.o:2:&*&..o&&o.. l",
"llll &*o6;X.&22*&*&..:22:X  ",
"llll o&.6pdXo*22*o&&.&:2*o. ",
"lllll o.;;+  X&*:*oX&:*&.X l",
"llllll .+   y;>ooXXX.&:*o ll",
"lllllll 6p  j>6>>+po..ooX ll",
"lllllll 6pO=k66>>+6.&o.X lll",
"lllllll >p=4kp6>;6>X.&  llll",
"lllllll ;6ppp6>;+>++  llllll",
"llllllll >pp6>;++++. lllllll",
"lllllllll 6>;+++++  llllllll",
"llllllllll    +,3aa5 lllllll",
"lllllllll 0;>,,qasfs5 llllll",
"lllll    1,<g-wq5assa3 lllll",
"l     @8 0ttwwq0335a55 lllll",
" ppp;++7 thhhhtq  35as5 llll",
" ppp6;+@ whhhtwwq 335aa5 lll",
" p>p6;   wthhttw00 335sf5 ll",
" >p6>+ ll whhwwq000 3assa ll",
" +6>+ lll whhwq0000 79fs5 ll",
"l    lll ,,<<,,,111 8r983 ll",
"llllllll wthwhwq00 +;+87 lll",
"lllllll 0whwhhwwq >66>;@ lll",
"llllll 1<ghhhttw p6pp6> llll",
"lllllll  ,gg<<,, 6k6pp> llll",
"lllllll 5        p;>k6; llll",
"llllll assa533 33  p6;    ll",
"lllll asffs53 l 333   1##% l",
"lllll 5sfsa33 ll 3333--$$% l",
"lllll ,asa533 lll  3-##$$$ l",
"llll #e<a533 llllll ####$$ l",
"    #$u,51-3 lllllll ###$ ll",
" eue$ue11## lllllllll #$$ ll",
" kieee$### llllllllll $$ lll",
"l  e%$#### lllllllll ee% lll",
"lll  $$### lllllllll ie llll",
"lllll  $$% lllllllll   lllll",
"lllllll   llllllllllllllllll"
};
