/* XPM */
static char *result[] = {
/* columns rows colors chars-per-pixel */
"28 47 47 1 ",
"  c black",
". c #533209",
"X c #402811",
"o c #663B01",
"O c #704028",
"+ c #7B4A31",
"@ c #213173",
"# c #3E5A4C",
"$ c #4F6E60",
"% c #5D7C6E",
"& c #824917",
"* c #9D5632",
"= c #A05828",
"- c #946B34",
"; c #AD6331",
": c #A86F3D",
"> c #DE7B39",
", c #E7C400",
"< c #FFEA2D",
"1 c #B38A41",
"2 c #B2874D",
"3 c #948B60",
"4 c #B58A64",
"5 c #B3AA7D",
"6 c #E7A563",
"7 c #294A8C",
"8 c #4263A5",
"9 c #4A7BBD",
"0 c #004ACE",
"q c #105AFF",
"w c #317BEF",
"e c #72988A",
"r c #6B9CCE",
"t c #529CFF",
"y c gray61",
"u c #86B3A3",
"i c #A5CCBE",
"p c #F7D694",
"a c #D7CEA3",
"s c #E5DDAC",
"d c #FFEFB5",
"f c #FFF5BF",
"g c #FFFFBC",
"h c #8CBDFF",
"j c #CECECE",
"k c white",
"l c None",
/* pixels */
"lllll          lll lllllllll",
"llllll o&*::*&. l : llllllll",
"lllll XX.o*:22:&  *: l lllll",
"lll  X.o&&&*:22:& &2* X llll",
"ll Xo&*222222:*&o.&:2X& llll",
"l X&*:222222:*:22*o*:o& llll",
"l .*:::222:*&22222:o*oX llll",
"ll &&*22:*&o:::2:&o*oX.o lll",
"ll &*::*&oo***22&o.X:&X. lll",
"l ..o&&o..&*&:2:o.X>*:&  lll",
"  X:22:..&*&*22&.X;6o*& llll",
" .o*2:&.&&o*22*oXdp6.&o llll",
"l X.&*:&Xo*:*&X  +;;.o lllll",
"ll o*:&.XXXoo>;y   +. llllll",
"ll Xoo..op+>>6>j  p6 lllllll",
"lll X.o&.6+>>66k=Op6 lllllll",
"llll  &.X>6;>6pk4=p> lllllll",
"llllll  ++>+;>6ppp6; lllllll",
"lllllll .++++;>6pp> llllllll",
"llllllll  +++++;>6 lllllllll",
"lllllll 5aa3,+    llllllllll",
"llllll 5sfsaq,,>;0 lllllllll",
"lllll 3assa5qw-g<,1    lllll",
"lllll 55a5330qwwtt0 8@     l",
"llll 5sa53  qthhhht 7++;ppp ",
"lll 5aa533 qwwthhhw @+;6ppp ",
"ll 5fs533 00wtthhtw   ;6p>p ",
"ll assa3 000qwwhhw ll +>6p> ",
"ll 5sf97 0000qwhhw lll +>6+ ",
"ll 389r8 111,,,<<,, lll    l",
"lll 78+;+ 00qwhwhtw llllllll",
"lll @;>66> qwwhhwhw0 lllllll",
"llll >6pp6p wtthhhg<1 llllll",
"llll >pp6k6 ,,<<gg,  lllllll",
"llll ;6k>;p        5 lllllll",
"ll    ;6p  33 335assa llllll",
"l %##1   333 l 35sffsa lllll",
"l %$$--3333 ll 33asfs5 lllll",
"l $$$##-3  lll 335asa, lllll",
"l $$#### llllll 335a<e# llll",
"ll $### lllllll 3-15,u$#    ",
"ll $$# lllllllll ##11eu$eue ",
"lll $$ llllllllll ###$eeeik ",
"lll %ee lllllllll ####$%e  l",
"llll ei lllllllll ###$$  lll",
"lllll   lllllllll %$$  lllll",
"llllllllllllllllll   lllllll"
};
