/* XPM */
static char *result[] = {
/* columns rows colors chars-per-pixel */
"25 47 37 1 ",
"  c black",
". c #201010",
"X c #533209",
"o c #402811",
"O c #663B01",
"+ c #7B4A31",
"@ c #756C3D",
"# c #3E5A4C",
"$ c #4F6E60",
"% c #5D7C6E",
"& c #824917",
"* c #9D5632",
"= c #AD6331",
"- c #A86F3D",
"; c #DE7B39",
": c #E7C400",
"> c #FFEA2D",
", c #B38A41",
"< c #B2874D",
"1 c #948B60",
"2 c #B3AA7D",
"3 c #E7A563",
"4 c #0031AD",
"5 c #004ACE",
"6 c #006CDE",
"7 c #105AFF",
"8 c #317BEF",
"9 c #72988A",
"0 c #529CFF",
"q c #86B3A3",
"w c #F7D694",
"e c #D7CEA3",
"r c #E5DDAC",
"t c #FFF5BF",
"y c #FFFFBC",
"u c #8CBDFF",
"i c None",
/* pixels */
"iiiiii.......ii..iiiiiiii",
"iiiii.o&*--*O...*.iiiiiii",
"iiiiii.oO*--**&.-*.i.iiii",
"iiiiiii.oO*---&.-*..O.iii",
"iiiii..O*-<<---&-<Oo&.iii",
"i....O*-<<<-&&&*O<*O-.iii",
"i.&&*-<<<-**-<-**&OXoo.ii",
"i.&*-<<<<-*-<<-*-*&O&o.ii",
"ii.&<<<-**-<<-*-<*&--&O.i",
"iii.***&*-<<-**<<*&&<o&O.",
"iii.&&&*-<<-*&-<<*&O-*oO.",
"iiiio&*---**O&-<<*&O&-..i",
"iii.OXXXO&&O&&<<<*&oO*.ii",
"...X&&&OOOO&&-<<-*&oX&.ii",
"i.&---------&-<<-&O.oX.ii",
"ii..&*-----**-<-*OX.o.iii",
"iiii.XO&&&OO-<-*&X...iiii",
"iiiii...XXXX-*&X.. iiiiii",
"iiiiiii o .&O..OO   iiiii",
"iiiiii 77:       : 2 iiii",
"iiiii rt78::>>>::77r2 iii",
"iiii rtr88800888887r2 iii",
"iii etre80u00800u88re1 ii",
"iii rtr278uu000u0082e2 ii",
"ii rtre 770u08uu087 2e@ i",
"ii rre2 78807770877 @1@ i",
"ii 2e22 :8008708887 45@ i",
"i 2e75  ,::0878088: 575 i",
"i 8807  700:>>>:::7 +=4 i",
"i 70;= 770uu8568007 +;+ i",
"i =3=+= 0uu0uu0uuu77 == i",
"i ;;+++= >>:,u80uu08 w; i",
"i ;=3=+;     ,:>yy>:, = i",
"i 3ww=3w @2e1          ii",
"i ;3ww=  1e2112re21   iii",
"ii =;3w @121@@2ert2 iiiii",
"iii     ,@1,, 1ette iiiii",
"iiiiiii $:,9# 1ert2 iiiii",
"iiiiiii #$q9% 12re1 iiiii",
"iiiiii $#%q9% ,:e1># iiii",
"iiiiii $$99$# #%::%# iiii",
"iiiiii #$%%9# %9q9#$ iiii",
"iiiiiii #$$$# #%q%$% iiii",
"iiiiiiii      #$99%$ iiii",
"iiiiiiiiiiiii #9%q9$ iiii",
"iiiiiiiiiiiiii $$%$ iiiii",
"iiiiiiiiiiiiiii    iiiiii"
};
